<?xml version="1.0" standalone="no"?><!DOCTYPE svg PUBLIC "-//W3C//DTD SVG 1.1//EN" "http://www.w3.org/Graphics/SVG/1.1/DTD/svg11.dtd"><svg t="1706608657526" class="icon" viewBox="0 0 1024 1024" version="1.1" xmlns="http://www.w3.org/2000/svg" p-id="4265" xmlns:xlink="http://www.w3.org/1999/xlink" width="200" height="200"><path d="M761.514667 989.866667H150.869333c-51.541333 0-93.525333-41.984-93.525333-93.354667V127.658667C57.514667 76.117333 99.328 34.133333 150.869333 34.133333h542.72c51.541333 0 93.354667 41.984 93.354667 93.525334V964.266667c0.170667 14.165333-11.264 25.6-25.429333 25.6zM150.869333 85.333333C127.658667 85.333333 108.714667 104.277333 108.714667 127.658667v768.853333c0 23.210667 18.944 42.154667 42.325333 42.154667h584.874667V127.658667c0-23.381333-18.944-42.325333-42.154667-42.325334H150.869333z" fill="#1296db" p-id="4266"></path><path d="M874.496 989.866667h-113.152c-14.165333 0-25.6-11.434667-25.6-25.6V512c0-39.082667 31.744-70.826667 70.826667-70.826667h90.453333c39.082667 0 70.826667 31.744 70.826667 70.826667v384.512c0.170667 51.370667-41.813333 93.354667-93.354667 93.354667z m-87.381333-51.2h87.552c23.381333 0 42.325333-18.944 42.325333-42.154667V512c0-10.752-8.874667-19.626667-19.626667-19.626667h-90.453333c-10.752 0-19.626667 8.874667-19.626667 19.626667v426.666667zM399.701333 266.24h-180.906666c-14.165333 0-25.6-11.434667-25.6-25.6s11.434667-25.6 25.6-25.6h180.906666c14.165333 0 25.6 11.434667 25.6 25.6s-11.434667 25.6-25.6 25.6zM490.154667 424.448h-271.36c-14.165333 0-25.6-11.434667-25.6-25.6s11.434667-25.6 25.6-25.6h271.36c14.165333 0 25.6 11.434667 25.6 25.6s-11.434667 25.6-25.6 25.6z" fill="#1296db" p-id="4267"></path><path d="M136.021333 466.773333h749.568c29.184 0 52.906667 23.722667 52.906667 52.906667V911.36c0 29.184-23.722667 52.906667-52.906667 52.906667H136.021333c-29.184 0-52.906667-23.722667-52.906666-52.906667V519.68c0-29.184 23.722667-52.906667 52.906666-52.906667z" fill="#1296db" opacity=".3" p-id="4268"></path><path d="M388.437333 759.978667c-3.584 8.533333-8.533333 15.701333-15.018666 21.504s-14.165333 10.24-23.210667 13.312-18.773333 4.608-29.525333 4.608h-100.010667v-238.933334h95.914667c23.552 0 41.642667 5.973333 54.442666 18.090667 12.8 12.117333 19.285333 28.330667 19.285334 48.981333 0 6.656-1.024 12.8-2.901334 18.090667s-4.266667 10.069333-7.338666 14.336c-3.072 4.096-6.314667 7.68-9.728 10.581333s-6.656 4.949333-9.557334 6.314667c3.584 1.877333 7.338667 4.096 11.264 6.826667 3.925333 2.730667 7.509333 6.314667 10.581334 10.581333s5.802667 9.386667 7.850666 15.189333c2.048 5.973333 3.242667 12.970667 3.242667 20.992 0 11.264-1.877333 21.162667-5.290667 29.525334z m-52.565333-150.357334c-5.290667-4.949333-12.970667-7.509333-23.04-7.509333h-45.568v54.954667h45.568c10.069333 0 17.749333-2.56 23.04-7.509334 5.290667-4.949333 7.850667-11.605333 7.850667-19.968 0-8.362667-2.56-15.018667-7.850667-19.968z m3.754667 97.962667c-4.949333-5.632-12.970667-8.533333-23.722667-8.533333h-48.64v58.709333h48.64c10.752 0 18.602667-2.901333 23.722667-8.704s7.509333-12.8 7.509333-20.821333-2.56-15.018667-7.509333-20.650667zM441.344 799.232v-238.933333h46.592v238.933333h-46.592z" fill="#1296db" p-id="4269"></path></svg>